HIERARCHY
ROOT Hips
{
  OFFSET 50.7806 86.6096 13.6375
  CHANNELS 6 Xposition Yposition Zposition Zrotation Xrotation Yrotation
  JOINT spine
  {
    OFFSET 0 6.84637 0.3937
    CHANNELS 3 Zrotation Xrotation Yrotation
    JOINT spine1
    {
      OFFSET 0 9.49621 0
      CHANNELS 3 Zrotation Xrotation Yrotation
      JOINT spine2
      {
        OFFSET 0 9.09909 0
        CHANNELS 3 Zrotation Xrotation Yrotation
        JOINT Neck
        {
          OFFSET 0 23.3612 1.11378
          CHANNELS 3 Zrotation Xrotation Yrotation
          JOINT Head
          {
            OFFSET 0 7.05802 0
            CHANNELS 3 Zrotation Xrotation Yrotation
            End Site
            {
              OFFSET 0 17.0844 -5.63419
            }
          }
        }
        JOINT RightShoulder
        {
          OFFSET -3.83136 9.82631 -0.533491
          CHANNELS 3 Zrotation Xrotation Yrotation
          JOINT RightArm
          {
            OFFSET 0 12.8881 0
            CHANNELS 3 Zrotation Xrotation Yrotation
            JOINT RightArmRoll
            {
              OFFSET 0 6.50617 0
              CHANNELS 3 Zrotation Xrotation Yrotation
              JOINT RightForeArm
              {
                OFFSET 0 18.9501 0
                CHANNELS 3 Zrotation Xrotation Yrotation
                JOINT RightForeArmRoll
                {
                  OFFSET 0 7.30092 0
                  CHANNELS 3 Zrotation Xrotation Yrotation
                  JOINT RightHand
                  {
                    OFFSET 0 14.6514 0
                    CHANNELS 3 Zrotation Xrotation Yrotation
                    End Site
                    {
                      OFFSET 0 0 0
                    }
                  }
                }
              }
            }
          }
        }
        JOINT LeftShoulder
        {
          OFFSET 3.83136 9.82631 -0.533491
          CHANNELS 3 Zrotation Xrotation Yrotation
          JOINT LeftArm
          {
            OFFSET 0 12.8881 0
            CHANNELS 3 Zrotation Xrotation Yrotation
            JOINT LeftArmRoll
            {
              OFFSET 0 6.50617 0
              CHANNELS 3 Zrotation Xrotation Yrotation
              JOINT LeftForeArm
              {
                OFFSET 0 18.9501 0
                CHANNELS 3 Zrotation Xrotation Yrotation
                JOINT LeftForeArmRoll
                {
                  OFFSET 0 7.30092 0
                  CHANNELS 3 Zrotation Xrotation Yrotation
                  JOINT LeftHand
                  {
                    OFFSET 0 14.6514 0
                    CHANNELS 3 Zrotation Xrotation Yrotation
                    End Site
                    {
                      OFFSET 0 0 0
                    }
                  }
                }
              }
            }
          }
        }
      }
    }
  }
  JOINT RightUpLeg
  {
    OFFSET -6.06837 -1.11278 -0.933477
    CHANNELS 3 Zrotation Xrotation Yrotation
    JOINT RightUpLegRoll
    {
      OFFSET 0 17.1796 0
      CHANNELS 3 Zrotation Xrotation Yrotation
      JOINT RightLeg
      {
        OFFSET 0 -21.2743 0
        CHANNELS 3 Zrotation Xrotation Yrotation
        JOINT RightLegRoll
        {
          OFFSET 0 21.3439 0
          CHANNELS 3 Zrotation Xrotation Yrotation
          JOINT RightFoot
          {
            OFFSET 0 17.7652 0
            CHANNELS 3 Zrotation Xrotation Yrotation
            JOINT RightToeBase
            {
              OFFSET 0 14.8508 0
              CHANNELS 3 Zrotation Xrotation Yrotation
              End Site
              {
                OFFSET 0.0062947 7.19213 -0.829005
              }
            }
          }
        }
      }
    }
  }
  JOINT LeftUpLeg
  {
    OFFSET 6.06837 -1.11278 -0.933477
    CHANNELS 3 Zrotation Xrotation Yrotation
    JOINT LeftUpLegRoll
    {
      OFFSET 0 17.1797 0
      CHANNELS 3 Zrotation Xrotation Yrotation
      JOINT LeftLeg
      {
        OFFSET 0 21.2742 0
        CHANNELS 3 Zrotation Xrotation Yrotation
        JOINT LeftLegRoll
        {
          OFFSET 0 21.5412 0
          CHANNELS 3 Zrotation Xrotation Yrotation
          JOINT LeftFoot
          {
            OFFSET 0 17.5679 0
            CHANNELS 3 Zrotation Xrotation Yrotation
            JOINT LeftToeBase
            {
              OFFSET 0 14.8508 0
              CHANNELS 3 Zrotation Xrotation Yrotation
              End Site
              {
                OFFSET -0.0282102 7.19214 -0.829005
              }
            }
          }
        }
      }
    }
  }
}
MOTION
Frames: 11
Frame Time: 0.00208333
52.4864 86.5998 11.2662 1.74197 0.698072 -2.51968 1.33083 -2.01645 1.116 2.69901 -0.00628604 2.10493 2.67445 1.63728 2.06036 -15.0876 9.74861 -1.8036 11.6032 8.12211 -5.77947 55.3713 -10.156 -6.30959 94.6639 7.7313 29.2906 -6.11125e-006 -3.76368e-006 -1.05153e-005 11.9203 0.151676 -0.288131 5.58698e-006 -2.09767e-006 -3.00757 8.02889 -4.95144 0.697687 -75.0272 -8.32393 5.51021 -92.7341 18.406 -32.0006 -2.64206e-006 3.1651e-006 -4.2912e-006 -12.0526 0.752942 -0.701484 4.70774e-007 -1.3054e-006 3 -8.0289 -4.95142 -0.697688 177.153 16.8487 -0.778103 180 7.01546e-015 178.917 176.245 25.5529 -179.731 4.71947e-006 -7.32592e-006 0.611337 -24.8686 72.6058 24.6329 8.13498 25.2368 -3.48708 178.515 12.6049 2.53584 4.54188e-006 -4.6773e-006 -1.22369 -2.02695 -23.7625 0.217392 1.96154e-006 -5.43848e-006 -0.730756 27.1181 74.8746 -28.0176 -8.13224 25.2417 3.47913 
52.461 86.6076 11.3204 1.74219 0.697146 -2.52967 1.33083 -2.01561 1.11849 2.698 -0.00458 2.10938 2.6734 1.63899 2.06482 -15.0788 9.7147 -1.81322 11.597 8.10972 -5.78101 55.3866 -10.1522 -6.30707 94.6846 7.79865 29.2134 -6.11125e-006 -3.76368e-006 -1.05153e-005 11.9529 0.2106 -0.295541 5.58698e-006 -2.09767e-006 -3.00757 8.02889 -4.95144 0.697687 -75.0045 -8.31625 5.50628 -92.766 18.4759 -31.8889 -2.64206e-006 3.1651e-006 -4.2912e-006 -12.1152 0.824368 -0.687678 4.70774e-007 -1.3054e-006 3 -8.0289 -4.95142 -0.697688 177.158 16.8481 -0.786136 180 7.01546e-015 178.917 176.25 25.5495 -179.733 4.71947e-006 -7.32592e-006 0.6114 -24.8608 72.6032 24.6259 8.13498 25.2368 -3.48708 178.517 12.6004 2.53267 4.54188e-006 -4.6773e-006 -1.22366 -2.02883 -23.7573 0.216825 1.96154e-006 -5.43848e-006 -0.730739 27.1159 74.8733 -28.0159 -8.13224 25.2417 3.47913 
52.4772 86.6068 11.2817 1.74229 0.69563 -2.54 1.33085 -2.01469 1.12107 2.69697 -0.00269297 2.11397 2.67233 1.64087 2.06943 -15.0695 9.68129 -1.82296 11.5904 8.09702 -5.78254 55.4024 -10.1486 -6.30467 94.705 7.86579 29.1371 -6.11125e-006 -3.76368e-006 -1.05153e-005 11.9854 0.268747 -0.30281 5.58698e-006 -2.09767e-006 -3.00757 8.02889 -4.95144 0.697687 -74.9811 -8.30842 5.50227 -92.799 18.5454 -31.7767 -2.64206e-006 3.1651e-006 -4.2912e-006 -12.1784 0.895376 -0.673932 4.70774e-007 -1.3054e-006 3 -8.0289 -4.95142 -0.697688 177.164 16.8469 -0.794427 180 7.01546e-015 178.917 176.256 25.546 -179.736 4.71947e-006 -7.32592e-006 0.611449 -24.8527 72.6004 24.6188 8.13498 25.2368 -3.48708 178.519 12.5953 2.52896 4.54188e-006 -4.6773e-006 -1.2236 -2.03096 -23.752 0.216172 1.96154e-006 -5.43848e-006 -0.730713 27.114 74.872 -28.0144 -8.13224 25.2417 3.47913 
52.4656 86.6095 11.3072 1.74231 0.693702 -2.55059 1.33088 -2.01371 1.12371 2.69593 -0.000679251 2.11866 2.67126 1.64289 2.07413 -15.0598 9.64823 -1.83279 11.5837 8.0841 -5.78405 55.4185 -10.1452 -6.30234 94.7251 7.93281 29.0614 -6.11125e-006 -3.76368e-006 -1.05153e-005 12.0177 0.326348 -0.309981 5.58698e-006 -2.09767e-006 -3.00757 8.02889 -4.95144 0.697687 -74.9573 -8.30049 5.49821 -92.8329 18.6146 -31.6642 -2.64206e-006 3.1651e-006 -4.2912e-006 -12.2419 0.966091 -0.660227 4.70774e-007 -1.3054e-006 3 -8.0289 -4.95142 -0.697688 177.17 16.8452 -0.802899 180 7.01546e-015 178.917 176.262 25.5424 -179.738 4.71947e-006 -7.32592e-006 0.611488 -24.8444 72.5977 24.6115 8.13498 25.2368 -3.48708 178.522 12.5896 2.52486 4.54188e-006 -4.6773e-006 -1.22354 -2.03326 -23.7467 0.215458 1.96154e-006 -5.43848e-006 -0.730682 27.1122 74.8707 -28.0129 -8.13224 25.2417 3.47913 
52.4734 86.6108 11.2905 1.74228 0.691539 -2.56131 1.33091 -2.01269 1.1264 2.69489 0.00140686 2.1234 2.67018 1.64497 2.0789 -15.05 9.61537 -1.84266 11.5768 8.07104 -5.78556 55.4347 -10.1417 -6.30006 94.7452 7.99979 28.986 -6.11125e-006 -3.76368e-006 -1.05153e-005 12.0499 0.383639 -0.317095 5.58698e-006 -2.09767e-006 -3.00757 8.02889 -4.95144 0.697687 -74.9333 -8.29251 5.49412 -92.8673 18.6837 -31.5514 -2.64206e-006 3.1651e-006 -4.2912e-006 -12.3056 1.03664 -0.646547 4.70774e-007 -1.3054e-006 3 -8.0289 -4.95142 -0.697688 177.176 16.8433 -0.811475 180 7.01546e-015 178.917 176.268 25.5387 -179.741 4.71947e-006 -7.32592e-006 0.611521 -24.8361 72.595 24.6041 8.13498 25.2368 -3.48708 178.525 12.5836 2.52054 4.54188e-006 -4.6773e-006 -1.22346 -2.03567 -23.7412 0.21471 1.96154e-006 -5.43848e-006 -0.730647 27.1104 74.8694 -28.0115 -8.13224 25.2417 3.47913 
52.4656 86.6115 11.3017 1.74223 0.689316 -2.57207 1.33095 -2.01166 1.12908 2.69385 0.00351106 2.12816 2.6691 1.64707 2.08367 -15.0401 9.58256 -1.85254 11.5699 8.05796 -5.78707 55.451 -10.1383 -6.29779 94.7655 8.06681 28.9108 -6.11125e-006 -3.76368e-006 -1.05153e-005 12.0822 0.440852 -0.324196 5.58698e-006 -2.09767e-006 -3.00757 8.02889 -4.95144 0.697687 -74.9092 -8.2845 5.49002 -92.9021 18.7529 -31.4385 -2.64206e-006 3.1651e-006 -4.2912e-006 -12.3694 1.10715 -0.632873 4.70774e-007 -1.3054e-006 3 -8.0289 -4.95142 -0.697688 177.183 16.8412 -0.820077 180 7.01546e-015 178.917 176.274 25.5351 -179.744 4.71947e-006 -7.32592e-006 0.611552 -24.8277 72.5923 24.5968 8.13498 25.2368 -3.48708 178.528 12.5776 2.51617 4.54188e-006 -4.6773e-006 -1.22339 -2.0381 -23.7358 0.213952 1.96154e-006 -5.43848e-006 -0.730612 27.1087 74.8681 -28.0101 -8.13224 25.2417 3.47913 
52.4644 86.607 11.2922 1.74221 0.687212 -2.58276 1.33098 -2.01065 1.13176 2.6928 0.00557904 2.1329 2.66802 1.64914 2.08842 -15.0303 9.54965 -1.8624 11.5631 8.04494 -5.78859 55.4672 -10.1349 -6.2955 94.786 8.13397 28.8353 -6.11125e-006 -3.76368e-006 -1.05153e-005 12.1145 0.49822 -0.331325 5.58698e-006 -2.09767e-006 -3.00757 8.02889 -4.95144 0.697687 -74.8852 -8.27653 5.48594 -92.937 18.8221 -31.3257 -2.64206e-006 3.1651e-006 -4.2912e-006 -12.4331 1.17774 -0.619188 4.70774e-007 -1.3054e-006 3 -8.0289 -4.95142 -0.697688 177.189 16.8393 -0.828626 180 7.01546e-015 178.917 176.28 25.5314 -179.746 4.71947e-006 -7.32592e-006 0.611586 -24.8194 72.5896 24.5894 8.13498 25.2368 -3.48708 178.531 12.5717 2.51191 4.54188e-006 -4.6773e-006 -1.22332 -2.04048 -23.7304 0.213212 1.96154e-006 -5.43848e-006 -0.730578 27.107 74.8667 -28.0087 -8.13224 25.2417 3.47913 
52.4546 86.6121 11.3145 1.74225 0.685402 -2.59328 1.331 -2.00968 1.13438 2.69177 0.00755652 2.13756 2.66694 1.65112 2.0931 -15.0208 9.51649 -1.8722 11.5564 8.03208 -5.7901 55.4832 -10.1314 -6.29315 94.8069 8.20135 28.7595 -6.11125e-006 -3.76368e-006 -1.05153e-005 12.1469 0.555977 -0.338525 5.58698e-006 -2.09767e-006 -3.00757 8.02889 -4.95144 0.697687 -74.8616 -8.26863 5.48189 -92.9716 18.8916 -31.213 -2.64206e-006 3.1651e-006 -4.2912e-006 -12.4966 1.24854 -0.605473 4.70774e-007 -1.3054e-006 3 -8.0289 -4.95142 -0.697688 177.195 16.8378 -0.837046 180 7.01546e-015 178.917 176.286 25.5278 -179.749 4.71947e-006 -7.32592e-006 0.611628 -24.8112 72.5868 24.5822 8.13498 25.2368 -3.48708 178.533 12.5661 2.50792 4.54188e-006 -4.6773e-006 -1.22325 -2.04273 -23.725 0.212516 1.96154e-006 -5.43848e-006 -0.730548 27.1051 74.8654 -28.0072 -8.13224 25.2417 3.47913 
52.4562 86.6119 11.3081 1.74238 0.684063 -2.60351 1.33101 -2.00878 1.13694 2.69074 0.00938918 2.1421 2.66588 1.65295 2.09766 -15.0117 9.48293 -1.8819 11.55 8.01947 -5.79163 55.4989 -10.1277 -6.29071 94.8285 8.26904 28.6831 -6.11125e-006 -3.76368e-006 -1.05153e-005 12.1795 0.614356 -0.345839 5.58698e-006 -2.09767e-006 -3.00757 8.02889 -4.95144 0.697687 -74.8384 -8.26085 5.47791 -93.0058 18.9614 -31.1007 -2.64206e-006 3.1651e-006 -4.2912e-006 -12.5598 1.31967 -0.591711 4.70774e-007 -1.3054e-006 3 -8.0289 -4.95142 -0.697688 177.2 16.8368 -0.845259 180 7.01546e-015 178.917 176.292 25.5244 -179.751 4.71947e-006 -7.32592e-006 0.611681 -24.8032 72.5841 24.5751 8.13498 25.2368 -3.48708 178.536 12.5612 2.50437 4.54188e-006 -4.6773e-006 -1.22321 -2.04478 -23.7197 0.211889 1.96154e-006 -5.43848e-006 -0.730525 27.1031 74.8641 -28.0056 -8.13224 25.2417 3.47913 
52.4533 86.6101 11.2878 1.74265 0.683372 -2.61336 1.33101 -2.00799 1.13939 2.68972 0.0110227 2.14649 2.66483 1.65458 2.10207 -15.0032 9.44883 -1.89146 11.5438 8.00722 -5.79318 55.514 -10.1239 -6.28815 94.8508 8.33712 28.6057 -6.11125e-006 -3.76368e-006 -1.05153e-005 12.2124 0.67359 -0.35331 5.58698e-006 -2.09767e-006 -3.00757 8.02889 -4.95144 0.697687 -74.8159 -8.25322 5.47402 -93.0393 19.0317 -30.9888 -2.64206e-006 3.1651e-006 -4.2912e-006 -12.6225 1.39127 -0.577884 4.70774e-007 -1.3054e-006 3 -8.0289 -4.95142 -0.697688 177.206 16.8365 -0.853188 180 7.01546e-015 178.917 176.298 25.5211 -179.754 4.71947e-006 -7.32592e-006 0.611751 -24.7955 72.5815 24.5683 8.13498 25.2368 -3.48708 178.538 12.557 2.50144 4.54188e-006 -4.6773e-006 -1.22318 -2.04656 -23.7146 0.211358 1.96154e-006 -5.43848e-006 -0.730511 27.1009 74.8628 -28.0039 -8.13224 25.2417 3.47913 
52.4488 86.6127 11.2918 1.74308 0.683506 -2.62271 1.33098 -2.00732 1.14172 2.68872 0.0124029 2.15069 2.66379 1.65596 2.10627 -14.9954 9.41403 -1.90086 11.5381 7.99541 -5.79474 55.5285 -10.1199 -6.28543 94.874 8.40569 28.5271 -6.11125e-006 -3.76368e-006 -1.05153e-005 12.2455 0.733913 -0.360979 5.58698e-006 -2.09767e-006 -3.00757 8.02889 -4.95144 0.697687 -74.7942 -8.2458 5.47023 -93.0718 19.1027 -30.8774 -2.64206e-006 3.1651e-006 -4.2912e-006 -12.6846 1.46345 -0.563974 4.70774e-007 -1.3054e-006 3 -8.0289 -4.95142 -0.697688 177.211 16.8372 -0.860755 180 7.01546e-015 178.917 176.303 25.518 -179.756 4.71947e-006 -7.32592e-006 0.611841 -24.7882 72.5788 24.5618 8.13498 25.2368 -3.48708 178.54 12.5539 2.49927 4.54188e-006 -4.6773e-006 -1.22317 -2.04798 -23.7097 0.210949 1.96154e-006 -5.43848e-006 -0.730509 27.0983 74.8614 -28.002 -8.13224 25.2417 3.47913 
